<svg width="36" height="36" viewBox="0 0 36 36" fill="none" xmlns="http://www.w3.org/2000/svg">
	<mask id="mask0" mask-type="alpha" maskUnits="userSpaceOnUse" x="0" y="0" width="36" height="36">
		<path fill-rule="evenodd" clip-rule="evenodd" d="M14.4697 27.85C14.6289 27.9486 14.8125 28.0006 14.9997 28C15.1563 27.9991 15.3104 27.9614 15.4497 27.89L21.4497 24.89C21.786 24.7205 21.9986 24.3766 21.9997 24V17.38L29.7497 8.66C30.0088 8.36512 30.0714 7.94596 29.9098 7.58827C29.7482 7.23057 29.3922 7.0005 28.9997 7H6.99973C6.60722 7.0005 6.2513 7.23057 6.08969 7.58827C5.92808 7.94596 5.99067 8.36512 6.24973 8.66L13.9997 17.38V27C13.999 27.3455 14.1767 27.6669 14.4697 27.85ZM15.7497 16.34L9.22973 9H26.7697L20.2497 16.34C20.089 16.5223 20.0001 16.7569 19.9997 17V23.38L15.9997 25.38V17C15.9994 16.7569 15.9105 16.5223 15.7497 16.34Z" fill="black" />
	</mask>
	<g mask="url(#mask0)">
		<rect width="36" height="36" fill="#4C4C4C" />
	</g>
</svg>
