<svg width="24" height="24" viewBox="0 0 24 24" fill="none" xmlns="http://www.w3.org/2000/svg">
<g clip-path="url(#clip0)">
<path d="M19.9541 17.8284L20.7872 17.4878L19.9541 17.8284ZM19.6991 18.6065L19.1746 17.8751L19.6991 18.6065ZM4.04585 17.8285L3.21277 17.488L4.04585 17.8285ZM4.30091 18.6066L3.77644 19.338H3.77644L4.30091 18.6066ZM4.87894 18.169C5.86978 15.7451 8.63146 13.9 12 13.9V12.1C8.0134 12.1 4.52064 14.2884 3.21277 17.488L4.87894 18.169ZM12 13.9C15.3685 13.9 18.1302 15.745 19.1211 18.169L20.7872 17.4878C19.4793 14.2884 15.9866 12.1 12 12.1V13.9ZM19.1746 17.8751C17.2482 19.2566 14.7475 20.1 11.9999 20.1V21.9C15.1137 21.9 17.9833 20.9444 20.2236 19.3379L19.1746 17.8751ZM11.9999 20.1C9.25247 20.1 6.75177 19.2566 4.82538 17.8752L3.77644 19.338C6.01673 20.9445 8.88626 21.9 11.9999 21.9V20.1ZM19.1211 18.169C19.095 18.1051 19.0936 18.031 19.1143 17.9685C19.1338 17.9095 19.1649 17.8821 19.1746 17.8751L20.2236 19.3379C20.7776 18.9406 21.081 18.2065 20.7872 17.4878L19.1211 18.169ZM3.21277 17.488C2.91898 18.2067 3.22239 18.9407 3.77644 19.338L4.82538 17.8752C4.83512 17.8822 4.86621 17.9096 4.88571 17.9685C4.90637 18.0311 4.90505 18.1052 4.87894 18.169L3.21277 17.488ZM14.6 6.5C14.6 7.93594 13.4359 9.1 12 9.1V10.9C14.4301 10.9 16.4 8.93005 16.4 6.5H14.6ZM12 9.1C10.5641 9.1 9.4 7.93594 9.4 6.5H7.6C7.6 8.93005 9.56995 10.9 12 10.9V9.1ZM9.4 6.5C9.4 5.06406 10.5641 3.9 12 3.9V2.1C9.56995 2.1 7.6 4.06995 7.6 6.5H9.4ZM12 3.9C13.4359 3.9 14.6 5.06406 14.6 6.5H16.4C16.4 4.06995 14.4301 2.1 12 2.1V3.9Z" fill="#86898C"/>
</g>
<defs>
<clipPath id="clip0">
<rect width="24" height="24" fill="white"/>
</clipPath>
</defs>
</svg>
