<svg width="36" height="36" viewBox="0 0 36 36" fill="none" xmlns="http://www.w3.org/2000/svg">
	<mask id="mask0" mask-type="alpha" maskUnits="userSpaceOnUse" x="6" y="6" width="24" height="24">
		<g clip-path="url(#clip0)">
			<path d="M16.0993 16.4C16.0993 17.1916 15.4576 17.8333 14.666 17.8333V19.6333C16.4517 19.6333 17.8993 18.1857 17.8993 16.4H16.0993ZM14.666 17.8333C13.8744 17.8333 13.2327 17.1916 13.2327 16.4H11.4327C11.4327 18.1857 12.8803 19.6333 14.666 19.6333V17.8333ZM13.2327 16.4C13.2327 15.6084 13.8744 14.9667 14.666 14.9667V13.1667C12.8803 13.1667 11.4327 14.6143 11.4327 16.4H13.2327ZM14.666 14.9667C15.4576 14.9667 16.0993 15.6084 16.0993 16.4H17.8993C17.8993 14.6143 16.4517 13.1667 14.666 13.1667V14.9667ZM11.2561 22.8455C12.1043 22.109 13.3084 21.6333 14.666 21.6333V19.8333C12.8926 19.8333 11.2648 20.4541 10.076 21.4863L11.2561 22.8455ZM14.666 21.6333C16.0236 21.6333 17.2277 22.109 18.076 22.8455L19.2561 21.4863C18.0672 20.4541 16.4395 19.8333 14.666 19.8333V21.6333Z" fill="#272B2F" />
			<path d="M22.7667 16.4C22.7667 17.1916 22.1249 17.8333 21.3333 17.8333V19.6333C23.1191 19.6333 24.5667 18.1857 24.5667 16.4H22.7667ZM21.3333 17.8333C20.5417 17.8333 19.9 17.1916 19.9 16.4H18.1C18.1 18.1857 19.5476 19.6333 21.3333 19.6333V17.8333ZM19.9 16.4C19.9 15.6084 20.5417 14.9667 21.3333 14.9667V13.1667C19.5476 13.1667 18.1 14.6143 18.1 16.4H19.9ZM21.3333 14.9667C22.1249 14.9667 22.7667 15.6084 22.7667 16.4H24.5667C24.5667 14.6143 23.1191 13.1667 21.3333 13.1667V14.9667ZM21.3333 21.6333C22.691 21.6333 23.8951 22.109 24.7433 22.8455L25.9234 21.4863C24.7345 20.4541 23.1068 19.8333 21.3333 19.8333V21.6333ZM20.1836 21.7507C20.5506 21.6742 20.9356 21.6333 21.3333 21.6333V19.8333C20.8122 19.8333 20.3042 19.8869 19.8164 19.9885L20.1836 21.7507Z" fill="#272B2F" />
		</g>
	</mask>
	<g mask="url(#mask0)">
		<rect width="36" height="36" fill="#2D2D2D" />
	</g>
	<defs>
		<clipPath id="clip0">
			<rect width="16" height="16" fill="white" transform="translate(10 10)" />
		</clipPath>
	</defs>
</svg>
