<svg width="24" height="24" viewBox="0 0 24 24" fill="none" xmlns="http://www.w3.org/2000/svg">
<g clip-path="url(#clip0)">
<path d="M6.84259 19.8462L6.32259 19.1116C6.47462 19.004 6.65631 18.9462 6.84259 18.9462V19.8462ZM3.8 19.8462V18.9462C4.29706 18.9462 4.7 19.3491 4.7 19.8462H3.8ZM3.8 22L4.32 22.7346C4.0454 22.929 3.68531 22.954 3.38648 22.7994C3.08765 22.6448 2.9 22.3364 2.9 22H3.8ZM3.5 9.1H4.4V10.9H3.5V9.1ZM6.84259 18.9462H12.2V20.7462H6.84259V18.9462ZM12.2 18.9462C12.6758 18.9462 13.1 18.5443 13.1 18H14.9C14.9 19.4951 13.7126 20.7462 12.2 20.7462V18.9462ZM2.9 11.8462C2.9 11.8496 2.9 11.853 2.9 11.8565C2.9 11.8599 2.9 11.8634 2.9 11.8668C2.9 11.8703 2.9 11.8737 2.9 11.8772C2.9 11.8806 2.9 11.8841 2.9 11.8875C2.9 11.891 2.9 11.8945 2.9 11.8979C2.9 11.9014 2.9 11.9049 2.9 11.9084C2.9 11.9118 2.9 11.9153 2.9 11.9188C2.9 11.9223 2.9 11.9258 2.9 11.9293C2.9 11.9327 2.9 11.9362 2.9 11.9397C2.9 11.9432 2.9 11.9467 2.9 11.9502C2.9 11.9537 2.9 11.9572 2.9 11.9607C2.9 11.9643 2.9 11.9678 2.9 11.9713C2.9 11.9748 2.9 11.9783 2.9 11.9818C2.9 11.9854 2.9 11.9889 2.9 11.9924C2.9 11.9959 2.9 11.9995 2.9 12.003C2.9 12.0065 2.9 12.0101 2.9 12.0136C2.9 12.0171 2.9 12.0207 2.9 12.0242C2.9 12.0278 2.9 12.0313 2.9 12.0349C2.9 12.0384 2.9 12.042 2.9 12.0455C2.9 12.0491 2.9 12.0527 2.9 12.0562C2.9 12.0598 2.9 12.0634 2.9 12.0669C2.9 12.0705 2.9 12.0741 2.9 12.0777C2.9 12.0812 2.9 12.0848 2.9 12.0884C2.9 12.092 2.9 12.0956 2.9 12.0992C2.9 12.1027 2.9 12.1063 2.9 12.1099C2.9 12.1135 2.9 12.1171 2.9 12.1207C2.9 12.1243 2.9 12.1279 2.9 12.1315C2.9 12.1351 2.9 12.1388 2.9 12.1424C2.9 12.146 2.9 12.1496 2.9 12.1532C2.9 12.1568 2.9 12.1605 2.9 12.1641C2.9 12.1677 2.9 12.1713 2.9 12.175C2.9 12.1786 2.9 12.1822 2.9 12.1859C2.9 12.1895 2.9 12.1931 2.9 12.1968C2.9 12.2004 2.9 12.2041 2.9 12.2077C2.9 12.2114 2.9 12.215 2.9 12.2187C2.9 12.2223 2.9 12.226 2.9 12.2297C2.9 12.2333 2.9 12.237 2.9 12.2406C2.9 12.2443 2.9 12.248 2.9 12.2516C2.9 12.2553 2.9 12.259 2.9 12.2627C2.9 12.2663 2.9 12.27 2.9 12.2737C2.9 12.2774 2.9 12.2811 2.9 12.2848C2.9 12.2885 2.9 12.2921 2.9 12.2958C2.9 12.2995 2.9 12.3032 2.9 12.3069C2.9 12.3106 2.9 12.3143 2.9 12.318C2.9 12.3217 2.9 12.3254 2.9 12.3292C2.9 12.3329 2.9 12.3366 2.9 12.3403C2.9 12.344 2.9 12.3477 2.9 12.3515C2.9 12.3552 2.9 12.3589 2.9 12.3626C2.9 12.3664 2.9 12.3701 2.9 12.3738C2.9 12.3775 2.9 12.3813 2.9 12.385C2.9 12.3888 2.9 12.3925 2.9 12.3962C2.9 12.4 2.9 12.4037 2.9 12.4075C2.9 12.4112 2.9 12.415 2.9 12.4187C2.9 12.4225 2.9 12.4262 2.9 12.43C2.9 12.4338 2.9 12.4375 2.9 12.4413C2.9 12.445 2.9 12.4488 2.9 12.4526C2.9 12.4564 2.9 12.4601 2.9 12.4639C2.9 12.4677 2.9 12.4715 2.9 12.4752C2.9 12.479 2.9 12.4828 2.9 12.4866C2.9 12.4904 2.9 12.4942 2.9 12.4979C2.9 12.5017 2.9 12.5055 2.9 12.5093C2.9 12.5131 2.9 12.5169 2.9 12.5207C2.9 12.5245 2.9 12.5283 2.9 12.5321C2.9 12.5359 2.9 12.5397 2.9 12.5435C2.9 12.5474 2.9 12.5512 2.9 12.555C2.9 12.5588 2.9 12.5626 2.9 12.5664C2.9 12.5703 2.9 12.5741 2.9 12.5779C2.9 12.5817 2.9 12.5856 2.9 12.5894C2.9 12.5932 2.9 12.5971 2.9 12.6009C2.9 12.6047 2.9 12.6086 2.9 12.6124C2.9 12.6162 2.9 12.6201 2.9 12.6239C2.9 12.6278 2.9 12.6316 2.9 12.6355C2.9 12.6393 2.9 12.6432 2.9 12.647C2.9 12.6509 2.9 12.6547 2.9 12.6586C2.9 12.6625 2.9 12.6663 2.9 12.6702C2.9 12.674 2.9 12.6779 2.9 12.6818C2.9 12.6857 2.9 12.6895 2.9 12.6934C2.9 12.6973 2.9 12.7011 2.9 12.705C2.9 12.7089 2.9 12.7128 2.9 12.7167C2.9 12.7205 2.9 12.7244 2.9 12.7283C2.9 12.7322 2.9 12.7361 2.9 12.74C2.9 12.7439 2.9 12.7478 2.9 12.7517C2.9 12.7556 2.9 12.7595 2.9 12.7634C2.9 12.7673 2.9 12.7712 2.9 12.7751C2.9 12.779 2.9 12.7829 2.9 12.7868C2.9 12.7907 2.9 12.7946 2.9 12.7985C2.9 12.8025 2.9 12.8064 2.9 12.8103C2.9 12.8142 2.9 12.8181 2.9 12.822C2.9 12.826 2.9 12.8299 2.9 12.8338C2.9 12.8378 2.9 12.8417 2.9 12.8456C2.9 12.8495 2.9 12.8535 2.9 12.8574C2.9 12.8614 2.9 12.8653 2.9 12.8692C2.9 12.8732 2.9 12.8771 2.9 12.8811C2.9 12.885 2.9 12.889 2.9 12.8929C2.9 12.8968 2.9 12.9008 2.9 12.9048C2.9 12.9087 2.9 12.9127 2.9 12.9166C2.9 12.9206 2.9 12.9245 2.9 12.9285C2.9 12.9325 2.9 12.9364 2.9 12.9404C2.9 12.9444 2.9 12.9483 2.9 12.9523C2.9 12.9563 2.9 12.9602 2.9 12.9642C2.9 12.9682 2.9 12.9722 2.9 12.9761C2.9 12.9801 2.9 12.9841 2.9 12.9881C2.9 12.9921 2.9 12.996 2.9 13C2.9 13.004 2.9 13.008 2.9 13.012C2.9 13.016 2.9 13.02 2.9 13.024C2.9 13.028 2.9 13.032 2.9 13.036C2.9 13.04 2.9 13.044 2.9 13.048C2.9 13.052 2.9 13.056 2.9 13.06C2.9 13.064 2.9 13.068 2.9 13.072C2.9 13.076 2.9 13.08 2.9 13.084C2.9 13.088 2.9 13.0921 2.9 13.0961C2.9 13.1001 2.9 13.1041 2.9 13.1081C2.9 13.1121 2.9 13.1162 2.9 13.1202C2.9 13.1242 2.9 13.1282 2.9 13.1323C2.9 13.1363 2.9 13.1403 2.9 13.1444C2.9 13.1484 2.9 13.1524 2.9 13.1565C2.9 13.1605 2.9 13.1645 2.9 13.1686C2.9 13.1726 2.9 13.1767 2.9 13.1807C2.9 13.1847 2.9 13.1888 2.9 13.1928C2.9 13.1969 2.9 13.2009 2.9 13.205C2.9 13.209 2.9 13.2131 2.9 13.2171C2.9 13.2212 2.9 13.2252 2.9 13.2293C2.9 13.2334 2.9 13.2374 2.9 13.2415C2.9 13.2455 2.9 13.2496 2.9 13.2537C2.9 13.2577 2.9 13.2618 2.9 13.2659C2.9 13.2699 2.9 13.274 2.9 13.2781C2.9 13.2821 2.9 13.2862 2.9 13.2903C2.9 13.2944 2.9 13.2984 2.9 13.3025C2.9 13.3066 2.9 13.3107 2.9 13.3148C2.9 13.3188 2.9 13.3229 2.9 13.327C2.9 13.3311 2.9 13.3352 2.9 13.3393C2.9 13.3433 2.9 13.3474 2.9 13.3515C2.9 13.3556 2.9 13.3597 2.9 13.3638C2.9 13.3679 2.9 13.372 2.9 13.3761C2.9 13.3802 2.9 13.3843 2.9 13.3884C2.9 13.3925 2.9 13.3966 2.9 13.4007C2.9 13.4048 2.9 13.4089 2.9 13.413C2.9 13.4171 2.9 13.4212 2.9 13.4253C2.9 13.4294 2.9 13.4336 2.9 13.4377C2.9 13.4418 2.9 13.4459 2.9 13.45C2.9 13.4541 2.9 13.4582 2.9 13.4624C2.9 13.4665 2.9 13.4706 2.9 13.4747C2.9 13.4788 2.9 13.483 2.9 13.4871C2.9 13.4912 2.9 13.4953 2.9 13.4995C2.9 13.5036 2.9 13.5077 2.9 13.5119C2.9 13.516 2.9 13.5201 2.9 13.5243C2.9 13.5284 2.9 13.5325 2.9 13.5367C2.9 13.5408 2.9 13.5449 2.9 13.5491C2.9 13.5532 2.9 13.5574 2.9 13.5615C2.9 13.5656 2.9 13.5698 2.9 13.5739C2.9 13.5781 2.9 13.5822 2.9 13.5864C2.9 13.5905 2.9 13.5947 2.9 13.5988C2.9 13.603 2.9 13.6071 2.9 13.6113C2.9 13.6154 2.9 13.6196 2.9 13.6237C2.9 13.6279 2.9 13.632 2.9 13.6362C2.9 13.6404 2.9 13.6445 2.9 13.6487C2.9 13.6528 2.9 13.657 2.9 13.6612C2.9 13.6653 2.9 13.6695 2.9 13.6737C2.9 13.6778 2.9 13.682 2.9 13.6862C2.9 13.6903 2.9 13.6945 2.9 13.6987C2.9 13.7028 2.9 13.707 2.9 13.7112C2.9 13.7154 2.9 13.7195 2.9 13.7237C2.9 13.7279 2.9 13.7321 2.9 13.7363C2.9 13.7404 2.9 13.7446 2.9 13.7488C2.9 13.753 2.9 13.7572 2.9 13.7613C2.9 13.7655 2.9 13.7697 2.9 13.7739C2.9 13.7781 2.9 13.7823 2.9 13.7865C2.9 13.7906 2.9 13.7948 2.9 13.799C2.9 13.8032 2.9 13.8074 2.9 13.8116C2.9 13.8158 2.9 13.82 2.9 13.8242C2.9 13.8284 2.9 13.8326 2.9 13.8368C2.9 13.841 2.9 13.8452 2.9 13.8494C2.9 13.8536 2.9 13.8578 2.9 13.862C2.9 13.8662 2.9 13.8704 2.9 13.8746C2.9 13.8788 2.9 13.883 2.9 13.8872C2.9 13.8914 2.9 13.8956 2.9 13.8998C2.9 13.904 2.9 13.9082 2.9 13.9124C2.9 13.9166 2.9 13.9209 2.9 13.9251C2.9 13.9293 2.9 13.9335 2.9 13.9377C2.9 13.9419 2.9 13.9461 2.9 13.9503C2.9 13.9546 2.9 13.9588 2.9 13.963C2.9 13.9672 2.9 13.9714 2.9 13.9757C2.9 13.9799 2.9 13.9841 2.9 13.9883C2.9 13.9925 2.9 13.9968 2.9 14.001C2.9 14.0052 2.9 14.0094 2.9 14.0137C2.9 14.0179 2.9 14.0221 2.9 14.0263C2.9 14.0306 2.9 14.0348 2.9 14.039C2.9 14.0433 2.9 14.0475 2.9 14.0517C2.9 14.056 2.9 14.0602 2.9 14.0644C2.9 14.0686 2.9 14.0729 2.9 14.0771C2.9 14.0814 2.9 14.0856 2.9 14.0898C2.9 14.0941 2.9 14.0983 2.9 14.1025C2.9 14.1068 2.9 14.111 2.9 14.1153C2.9 14.1195 2.9 14.1237 2.9 14.128C2.9 14.1322 2.9 14.1365 2.9 14.1407C2.9 14.1449 2.9 14.1492 2.9 14.1534C2.9 14.1577 2.9 14.1619 2.9 14.1662C2.9 14.1704 2.9 14.1747 2.9 14.1789C2.9 14.1832 2.9 14.1874 2.9 14.1917C2.9 14.1959 2.9 14.2002 2.9 14.2044C2.9 14.2087 2.9 14.2129 2.9 14.2172C2.9 14.2214 2.9 14.2257 2.9 14.2299C2.9 14.2342 2.9 14.2384 2.9 14.2427C2.9 14.2469 2.9 14.2512 2.9 14.2554C2.9 14.2597 2.9 14.264 2.9 14.2682C2.9 14.2725 2.9 14.2767 2.9 14.281C2.9 14.2852 2.9 14.2895 2.9 14.2938C2.9 14.298 2.9 14.3023 2.9 14.3065C2.9 14.3108 2.9 14.3151 2.9 14.3193C2.9 14.3236 2.9 14.3279 2.9 14.3321C2.9 14.3364 2.9 14.3407 2.9 14.3449C2.9 14.3492 2.9 14.3534 2.9 14.3577C2.9 14.362 2.9 14.3662 2.9 14.3705C2.9 14.3748 2.9 14.379 2.9 14.3833C2.9 14.3876 2.9 14.3919 2.9 14.3961C2.9 14.4004 2.9 14.4047 2.9 14.4089C2.9 14.4132 2.9 14.4175 2.9 14.4217C2.9 14.426 2.9 14.4303 2.9 14.4346C2.9 14.4388 2.9 14.4431 2.9 14.4474C2.9 14.4517 2.9 14.4559 2.9 14.4602C2.9 14.4645 2.9 14.4688 2.9 14.473C2.9 14.4773 2.9 14.4816 2.9 14.4859C2.9 14.4901 2.9 14.4944 2.9 14.4987C2.9 14.503 2.9 14.5072 2.9 14.5115C2.9 14.5158 2.9 14.5201 2.9 14.5244C2.9 14.5286 2.9 14.5329 2.9 14.5372C2.9 14.5415 2.9 14.5458 2.9 14.55C2.9 14.5543 2.9 14.5586 2.9 14.5629C2.9 14.5672 2.9 14.5714 2.9 14.5757C2.9 14.58 2.9 14.5843 2.9 14.5886C2.9 14.5929 2.9 14.5971 2.9 14.6014C2.9 14.6057 2.9 14.61 2.9 14.6143C2.9 14.6186 2.9 14.6228 2.9 14.6271C2.9 14.6314 2.9 14.6357 2.9 14.64C2.9 14.6443 2.9 14.6485 2.9 14.6528C2.9 14.6571 2.9 14.6614 2.9 14.6657C2.9 14.67 2.9 14.6743 2.9 14.6786C2.9 14.6828 2.9 14.6871 2.9 14.6914C2.9 14.6957 2.9 14.7 2.9 14.7043C2.9 14.7086 2.9 14.7129 2.9 14.7171C2.9 14.7214 2.9 14.7257 2.9 14.73C2.9 14.7343 2.9 14.7386 2.9 14.7429C2.9 14.7472 2.9 14.7514 2.9 14.7557C2.9 14.76 2.9 14.7643 2.9 14.7686C2.9 14.7729 2.9 14.7772 2.9 14.7815C2.9 14.7858 2.9 14.7901 2.9 14.7943C2.9 14.7986 2.9 14.8029 2.9 14.8072C2.9 14.8115 2.9 14.8158 2.9 14.8201C2.9 14.8244 2.9 14.8287 2.9 14.833C2.9 14.8372 2.9 14.8415 2.9 14.8458C2.9 14.8501 2.9 14.8544 2.9 14.8587C2.9 14.863 2.9 14.8673 2.9 14.8716C2.9 14.8759 2.9 14.8802 2.9 14.8845C2.9 14.8887 2.9 14.893 2.9 14.8973C2.9 14.9016 2.9 14.9059 2.9 14.9102C2.9 14.9145 2.9 14.9188 2.9 14.9231C2.9 14.9274 2.9 14.9317 2.9 14.9359C2.9 14.9402 2.9 14.9445 2.9 14.9488C2.9 14.9531 2.9 14.9574 2.9 14.9617C2.9 14.966 2.9 14.9703 2.9 14.9746C2.9 14.9789 2.9 14.9832 2.9 14.9874C2.9 14.9917 2.9 14.996 2.9 15.0003C2.9 15.0046 2.9 15.0089 2.9 15.0132C2.9 15.0175 2.9 15.0218 2.9 15.0261C2.9 15.0304 2.9 15.0346 2.9 15.0389C2.9 15.0432 2.9 15.0475 2.9 15.0518C2.9 15.0561 2.9 15.0604 2.9 15.0647C2.9 15.069 2.9 15.0733 2.9 15.0775C2.9 15.0818 2.9 15.0861 2.9 15.0904C2.9 15.0947 2.9 15.099 2.9 15.1033C2.9 15.1076 2.9 15.1119 2.9 15.1161C2.9 15.1204 2.9 15.1247 2.9 15.129C2.9 15.1333 2.9 15.1376 2.9 15.1419C2.9 15.1462 2.9 15.1505 2.9 15.1547C2.9 15.159 2.9 15.1633 2.9 15.1676C2.9 15.1719 2.9 15.1762 2.9 15.1805C2.9 15.1847 2.9 15.189 2.9 15.1933C2.9 15.1976 2.9 15.2019 2.9 15.2062C2.9 15.2105 2.9 15.2147 2.9 15.219C2.9 15.2233 2.9 15.2276 2.9 15.2319C2.9 15.2362 2.9 15.2404 2.9 15.2447C2.9 15.249 2.9 15.2533 2.9 15.2576C2.9 15.2619 2.9 15.2661 2.9 15.2704C2.9 15.2747 2.9 15.279 2.9 15.2833C2.9 15.2876 2.9 15.2918 2.9 15.2961C2.9 15.3004 2.9 15.3047 2.9 15.309C2.9 15.3132 2.9 15.3175 2.9 15.3218C2.9 15.3261 2.9 15.3304 2.9 15.3346C2.9 15.3389 2.9 15.3432 2.9 15.3475C2.9 15.3517 2.9 15.356 2.9 15.3603C2.9 15.3646 2.9 15.3688 2.9 15.3731C2.9 15.3774 2.9 15.3817 2.9 15.3859C2.9 15.3902 2.9 15.3945 2.9 15.3988C2.9 15.403 2.9 15.4073 2.9 15.4116C2.9 15.4159 2.9 15.4201 2.9 15.4244C2.9 15.4287 2.9 15.4329 2.9 15.4372C2.9 15.4415 2.9 15.4458 2.9 15.45C2.9 15.4543 2.9 15.4586 2.9 15.4628C2.9 15.4671 2.9 15.4714 2.9 15.4756C2.9 15.4799 2.9 15.4842 2.9 15.4884C2.9 15.4927 2.9 15.497 2.9 15.5012C2.9 15.5055 2.9 15.5098 2.9 15.514C2.9 15.5183 2.9 15.5226 2.9 15.5268C2.9 15.5311 2.9 15.5353 2.9 15.5396C2.9 15.5439 2.9 15.5481 2.9 15.5524C2.9 15.5566 2.9 15.5609 2.9 15.5652C2.9 15.5694 2.9 15.5737 2.9 15.5779C2.9 15.5822 2.9 15.5865 2.9 15.5907C2.9 15.595 2.9 15.5992 2.9 15.6035C2.9 15.6077 2.9 15.612 2.9 15.6162C2.9 15.6205 2.9 15.6247 2.9 15.629C2.9 15.6332 2.9 15.6375 2.9 15.6418C2.9 15.646 2.9 15.6503 2.9 15.6545C2.9 15.6587 2.9 15.663 2.9 15.6672C2.9 15.6715 2.9 15.6757 2.9 15.68C2.9 15.6842 2.9 15.6885 2.9 15.6927C2.9 15.697 2.9 15.7012 2.9 15.7055C2.9 15.7097 2.9 15.7139 2.9 15.7182C2.9 15.7224 2.9 15.7267 2.9 15.7309C2.9 15.7351 2.9 15.7394 2.9 15.7436C2.9 15.7479 2.9 15.7521 2.9 15.7563C2.9 15.7606 2.9 15.7648 2.9 15.769C2.9 15.7733 2.9 15.7775 2.9 15.7817C2.9 15.786 2.9 15.7902 2.9 15.7944C2.9 15.7987 2.9 15.8029 2.9 15.8071C2.9 15.8114 2.9 15.8156 2.9 15.8198C2.9 15.824 2.9 15.8283 2.9 15.8325C2.9 15.8367 2.9 15.8409 2.9 15.8452C2.9 15.8494 2.9 15.8536 2.9 15.8578C2.9 15.8621 2.9 15.8663 2.9 15.8705C2.9 15.8747 2.9 15.8789 2.9 15.8832C2.9 15.8874 2.9 15.8916 2.9 15.8958C2.9 15.9 2.9 15.9042 2.9 15.9084C2.9 15.9127 2.9 15.9169 2.9 15.9211C2.9 15.9253 2.9 15.9295 2.9 15.9337C2.9 15.9379 2.9 15.9421 2.9 15.9463C2.9 15.9506 2.9 15.9548 2.9 15.959C2.9 15.9632 2.9 15.9674 2.9 15.9716C2.9 15.9758 2.9 15.98 2.9 15.9842C2.9 15.9884 2.9 15.9926 2.9 15.9968C2.9 16.001 2.9 16.0052 2.9 16.0094C2.9 16.0136 2.9 16.0178 2.9 16.022C2.9 16.0262 2.9 16.0304 2.9 16.0346C2.9 16.0387 2.9 16.0429 2.9 16.0471C2.9 16.0513 2.9 16.0555 2.9 16.0597C2.9 16.0639 2.9 16.0681 2.9 16.0723C2.9 16.0764 2.9 16.0806 2.9 16.0848C2.9 16.089 2.9 16.0932 2.9 16.0974C2.9 16.1015 2.9 16.1057 2.9 16.1099C2.9 16.1141 2.9 16.1183 2.9 16.1224C2.9 16.1266 2.9 16.1308 2.9 16.135C2.9 16.1391 2.9 16.1433 2.9 16.1475C2.9 16.1516 2.9 16.1558 2.9 16.16C2.9 16.1642 2.9 16.1683 2.9 16.1725C2.9 16.1767 2.9 16.1808 2.9 16.185C2.9 16.1891 2.9 16.1933 2.9 16.1975C2.9 16.2016 2.9 16.2058 2.9 16.2099C2.9 16.2141 2.9 16.2183 2.9 16.2224C2.9 16.2266 2.9 16.2307 2.9 16.2349C2.9 16.239 2.9 16.2432 2.9 16.2473C2.9 16.2515 2.9 16.2556 2.9 16.2598C2.9 16.2639 2.9 16.2681 2.9 16.2722C2.9 16.2764 2.9 16.2805 2.9 16.2847C2.9 16.2888 2.9 16.2929 2.9 16.2971C2.9 16.3012 2.9 16.3053 2.9 16.3095C2.9 16.3136 2.9 16.3178 2.9 16.3219C2.9 16.326 2.9 16.3302 2.9 16.3343C2.9 16.3384 2.9 16.3425 2.9 16.3467C2.9 16.3508 2.9 16.3549 2.9 16.3591C2.9 16.3632 2.9 16.3673 2.9 16.3714C2.9 16.3755 2.9 16.3797 2.9 16.3838C2.9 16.3879 2.9 16.392 2.9 16.3961C2.9 16.4003 2.9 16.4044 2.9 16.4085C2.9 16.4126 2.9 16.4167 2.9 16.4208C2.9 16.4249 2.9 16.429 2.9 16.4331C2.9 16.4372 2.9 16.4414 2.9 16.4455C2.9 16.4496 2.9 16.4537 2.9 16.4578C2.9 16.4619 2.9 16.466 2.9 16.4701C2.9 16.4742 2.9 16.4783 2.9 16.4823C2.9 16.4864 2.9 16.4905 2.9 16.4946C2.9 16.4987 2.9 16.5028 2.9 16.5069C2.9 16.511 2.9 16.5151 2.9 16.5191C2.9 16.5232 2.9 16.5273 2.9 16.5314C2.9 16.5355 2.9 16.5396 2.9 16.5436C2.9 16.5477 2.9 16.5518 2.9 16.5559C2.9 16.5599 2.9 16.564 2.9 16.5681C2.9 16.5722 2.9 16.5762 2.9 16.5803C2.9 16.5844 2.9 16.5884 2.9 16.5925C2.9 16.5965 2.9 16.6006 2.9 16.6047C2.9 16.6087 2.9 16.6128 2.9 16.6168C2.9 16.6209 2.9 16.625 2.9 16.629C2.9 16.6331 2.9 16.6371 2.9 16.6412C2.9 16.6452 2.9 16.6493 2.9 16.6533C2.9 16.6574 2.9 16.6614 2.9 16.6654C2.9 16.6695 2.9 16.6735 2.9 16.6776C2.9 16.6816 2.9 16.6856 2.9 16.6897C2.9 16.6937 2.9 16.6978 2.9 16.7018C2.9 16.7058 2.9 16.7098 2.9 16.7139C2.9 16.7179 2.9 16.7219 2.9 16.726C2.9 16.73 2.9 16.734 2.9 16.738C2.9 16.742 2.9 16.7461 2.9 16.7501C2.9 16.7541 2.9 16.7581 2.9 16.7621C2.9 16.7661 2.9 16.7702 2.9 16.7742C2.9 16.7782 2.9 16.7822 2.9 16.7862C2.9 16.7902 2.9 16.7942 2.9 16.7982C2.9 16.8022 2.9 16.8062 2.9 16.8102C2.9 16.8142 2.9 16.8182 2.9 16.8222C2.9 16.8262 2.9 16.8302 2.9 16.8342C2.9 16.8381 2.9 16.8421 2.9 16.8461C2.9 16.8501 2.9 16.8541 2.9 16.8581C2.9 16.8621 2.9 16.866 2.9 16.87C2.9 16.874 2.9 16.878 2.9 16.8819C2.9 16.8859 2.9 16.8899 2.9 16.8939C2.9 16.8978 2.9 16.9018 2.9 16.9058C2.9 16.9097 2.9 16.9137 2.9 16.9177C2.9 16.9216 2.9 16.9256 2.9 16.9295C2.9 16.9335 2.9 16.9374 2.9 16.9414C2.9 16.9454 2.9 16.9493 2.9 16.9533C2.9 16.9572 2.9 16.9611 2.9 16.9651C2.9 16.969 2.9 16.973 2.9 16.9769C2.9 16.9809 2.9 16.9848 2.9 16.9887C2.9 16.9927 2.9 16.9966 2.9 17.0005C2.9 17.0045 2.9 17.0084 2.9 17.0123C2.9 17.0163 2.9 17.0202 2.9 17.0241C2.9 17.028 2.9 17.0319 2.9 17.0359C2.9 17.0398 2.9 17.0437 2.9 17.0476C2.9 17.0515 2.9 17.0554 2.9 17.0594C2.9 17.0633 2.9 17.0672 2.9 17.0711C2.9 17.075 2.9 17.0789 2.9 17.0828C2.9 17.0867 2.9 17.0906 2.9 17.0945C2.9 17.0984 2.9 17.1023 2.9 17.1062C2.9 17.1101 2.9 17.1139 2.9 17.1178C2.9 17.1217 2.9 17.1256 2.9 17.1295C2.9 17.1334 2.9 17.1372 2.9 17.1411C2.9 17.145 2.9 17.1489 2.9 17.1528C2.9 17.1566 2.9 17.1605 2.9 17.1644C2.9 17.1682 2.9 17.1721 2.9 17.176C2.9 17.1798 2.9 17.1837 2.9 17.1876C2.9 17.1914 2.9 17.1953 2.9 17.1991C2.9 17.203 2.9 17.2068 2.9 17.2107C2.9 17.2145 2.9 17.2184 2.9 17.2222C2.9 17.2261 2.9 17.2299 2.9 17.2337C2.9 17.2376 2.9 17.2414 2.9 17.2453C2.9 17.2491 2.9 17.2529 2.9 17.2568C2.9 17.2606 2.9 17.2644 2.9 17.2682C2.9 17.2721 2.9 17.2759 2.9 17.2797C2.9 17.2835 2.9 17.2873 2.9 17.2912C2.9 17.295 2.9 17.2988 2.9 17.3026C2.9 17.3064 2.9 17.3102 2.9 17.314C2.9 17.3178 2.9 17.3216 2.9 17.3254C2.9 17.3292 2.9 17.333 2.9 17.3368C2.9 17.3406 2.9 17.3444 2.9 17.3482C2.9 17.352 2.9 17.3558 2.9 17.3596C2.9 17.3634 2.9 17.3671 2.9 17.3709C2.9 17.3747 2.9 17.3785 2.9 17.3822C2.9 17.386 2.9 17.3898 2.9 17.3936C2.9 17.3973 2.9 17.4011 2.9 17.4049C2.9 17.4086 2.9 17.4124 2.9 17.4162C2.9 17.4199 2.9 17.4237 2.9 17.4274C2.9 17.4312 2.9 17.4349 2.9 17.4387C2.9 17.4424 2.9 17.4462 2.9 17.4499C2.9 17.4537 2.9 17.4574 2.9 17.4611C2.9 17.4649 2.9 17.4686 2.9 17.4723C2.9 17.4761 2.9 17.4798 2.9 17.4835C2.9 17.4873 2.9 17.491 2.9 17.4947C2.9 17.4984 2.9 17.5021 2.9 17.5059C2.9 17.5096 2.9 17.5133 2.9 17.517C2.9 17.5207 2.9 17.5244 2.9 17.5281C2.9 17.5318 2.9 17.5355 2.9 17.5392C2.9 17.5429 2.9 17.5466 2.9 17.5503C2.9 17.554 2.9 17.5577 2.9 17.5614C2.9 17.5651 2.9 17.5688 2.9 17.5724C2.9 17.5761 2.9 17.5798 2.9 17.5835C2.9 17.5872 2.9 17.5908 2.9 17.5945C2.9 17.5982 2.9 17.6018 2.9 17.6055C2.9 17.6092 2.9 17.6128 2.9 17.6165C2.9 17.6202 2.9 17.6238 2.9 17.6275C2.9 17.6311 2.9 17.6348 2.9 17.6384C2.9 17.6421 2.9 17.6457 2.9 17.6494C2.9 17.653 2.9 17.6566 2.9 17.6603C2.9 17.6639 2.9 17.6676 2.9 17.6712C2.9 17.6748 2.9 17.6784 2.9 17.6821C2.9 17.6857 2.9 17.6893 2.9 17.6929C2.9 17.6965 2.9 17.7002 2.9 17.7038C2.9 17.7074 2.9 17.711 2.9 17.7146C2.9 17.7182 2.9 17.7218 2.9 17.7254C2.9 17.729 2.9 17.7326 2.9 17.7362C2.9 17.7398 2.9 17.7434 2.9 17.747C2.9 17.7506 2.9 17.7542 2.9 17.7578C2.9 17.7613 2.9 17.7649 2.9 17.7685C2.9 17.7721 2.9 17.7756 2.9 17.7792C2.9 17.7828 2.9 17.7864 2.9 17.7899C2.9 17.7935 2.9 17.797 2.9 17.8006C2.9 17.8042 2.9 17.8077 2.9 17.8113C2.9 17.8148 2.9 17.8184 2.9 17.8219C2.9 17.8255 2.9 17.829 2.9 17.8325C2.9 17.8361 2.9 17.8396 2.9 17.8432C2.9 17.8467 2.9 17.8502 2.9 17.8537C2.9 17.8573 2.9 17.8608 2.9 17.8643C2.9 17.8678 2.9 17.8714 2.9 17.8749C2.9 17.8784 2.9 17.8819 2.9 17.8854C2.9 17.8889 2.9 17.8924 2.9 17.8959C2.9 17.8994 2.9 17.9029 2.9 17.9064C2.9 17.9099 2.9 17.9134 2.9 17.9169C2.9 17.9204 2.9 17.9239 2.9 17.9273C2.9 17.9308 2.9 17.9343 2.9 17.9378C2.9 17.9413 2.9 17.9447 2.9 17.9482C2.9 17.9517 2.9 17.9551 2.9 17.9586C2.9 17.9621 2.9 17.9655 2.9 17.969C2.9 17.9724 2.9 17.9759 2.9 17.9793C2.9 17.9828 2.9 17.9862 2.9 17.9897C2.9 17.9931 2.9 17.9966 2.9 18H1.1C1.1 17.9966 1.1 17.9931 1.1 17.9897C1.1 17.9862 1.1 17.9828 1.1 17.9793C1.1 17.9759 1.1 17.9724 1.1 17.969C1.1 17.9655 1.1 17.9621 1.1 17.9586C1.1 17.9551 1.1 17.9517 1.1 17.9482C1.1 17.9447 1.1 17.9413 1.1 17.9378C1.1 17.9343 1.1 17.9308 1.1 17.9273C1.1 17.9239 1.1 17.9204 1.1 17.9169C1.1 17.9134 1.1 17.9099 1.1 17.9064C1.1 17.9029 1.1 17.8994 1.1 17.8959C1.1 17.8924 1.1 17.8889 1.1 17.8854C1.1 17.8819 1.1 17.8784 1.1 17.8749C1.1 17.8714 1.1 17.8678 1.1 17.8643C1.1 17.8608 1.1 17.8573 1.1 17.8537C1.1 17.8502 1.1 17.8467 1.1 17.8432C1.1 17.8396 1.1 17.8361 1.1 17.8325C1.1 17.829 1.1 17.8255 1.1 17.8219C1.1 17.8184 1.1 17.8148 1.1 17.8113C1.1 17.8077 1.1 17.8042 1.1 17.8006C1.1 17.797 1.1 17.7935 1.1 17.7899C1.1 17.7864 1.1 17.7828 1.1 17.7792C1.1 17.7756 1.1 17.7721 1.1 17.7685C1.1 17.7649 1.1 17.7613 1.1 17.7578C1.1 17.7542 1.1 17.7506 1.1 17.747C1.1 17.7434 1.1 17.7398 1.1 17.7362C1.1 17.7326 1.1 17.729 1.1 17.7254C1.1 17.7218 1.1 17.7182 1.1 17.7146C1.1 17.711 1.1 17.7074 1.1 17.7038C1.1 17.7002 1.1 17.6965 1.1 17.6929C1.1 17.6893 1.1 17.6857 1.1 17.6821C1.1 17.6784 1.1 17.6748 1.1 17.6712C1.1 17.6676 1.1 17.6639 1.1 17.6603C1.1 17.6566 1.1 17.653 1.1 17.6494C1.1 17.6457 1.1 17.6421 1.1 17.6384C1.1 17.6348 1.1 17.6311 1.1 17.6275C1.1 17.6238 1.1 17.6202 1.1 17.6165C1.1 17.6128 1.1 17.6092 1.1 17.6055C1.1 17.6018 1.1 17.5982 1.1 17.5945C1.1 17.5908 1.1 17.5872 1.1 17.5835C1.1 17.5798 1.1 17.5761 1.1 17.5724C1.1 17.5688 1.1 17.5651 1.1 17.5614C1.1 17.5577 1.1 17.554 1.1 17.5503C1.1 17.5466 1.1 17.5429 1.1 17.5392C1.1 17.5355 1.1 17.5318 1.1 17.5281C1.1 17.5244 1.1 17.5207 1.1 17.517C1.1 17.5133 1.1 17.5096 1.1 17.5059C1.1 17.5021 1.1 17.4984 1.1 17.4947C1.1 17.491 1.1 17.4873 1.1 17.4835C1.1 17.4798 1.1 17.4761 1.1 17.4723C1.1 17.4686 1.1 17.4649 1.1 17.4611C1.1 17.4574 1.1 17.4537 1.1 17.4499C1.1 17.4462 1.1 17.4424 1.1 17.4387C1.1 17.4349 1.1 17.4312 1.1 17.4274C1.1 17.4237 1.1 17.4199 1.1 17.4162C1.1 17.4124 1.1 17.4086 1.1 17.4049C1.1 17.4011 1.1 17.3973 1.1 17.3936C1.1 17.3898 1.1 17.386 1.1 17.3822C1.1 17.3785 1.1 17.3747 1.1 17.3709C1.1 17.3671 1.1 17.3634 1.1 17.3596C1.1 17.3558 1.1 17.352 1.1 17.3482C1.1 17.3444 1.1 17.3406 1.1 17.3368C1.1 17.333 1.1 17.3292 1.1 17.3254C1.1 17.3216 1.1 17.3178 1.1 17.314C1.1 17.3102 1.1 17.3064 1.1 17.3026C1.1 17.2988 1.1 17.295 1.1 17.2912C1.1 17.2873 1.1 17.2835 1.1 17.2797C1.1 17.2759 1.1 17.2721 1.1 17.2682C1.1 17.2644 1.1 17.2606 1.1 17.2568C1.1 17.2529 1.1 17.2491 1.1 17.2453C1.1 17.2414 1.1 17.2376 1.1 17.2337C1.1 17.2299 1.1 17.2261 1.1 17.2222C1.1 17.2184 1.1 17.2145 1.1 17.2107C1.1 17.2068 1.1 17.203 1.1 17.1991C1.1 17.1953 1.1 17.1914 1.1 17.1876C1.1 17.1837 1.1 17.1798 1.1 17.176C1.1 17.1721 1.1 17.1682 1.1 17.1644C1.1 17.1605 1.1 17.1566 1.1 17.1528C1.1 17.1489 1.1 17.145 1.1 17.1411C1.1 17.1372 1.1 17.1334 1.1 17.1295C1.1 17.1256 1.1 17.1217 1.1 17.1178C1.1 17.1139 1.1 17.1101 1.1 17.1062C1.1 17.1023 1.1 17.0984 1.1 17.0945C1.1 17.0906 1.1 17.0867 1.1 17.0828C1.1 17.0789 1.1 17.075 1.1 17.0711C1.1 17.0672 1.1 17.0633 1.1 17.0594C1.1 17.0554 1.1 17.0515 1.1 17.0476C1.1 17.0437 1.1 17.0398 1.1 17.0359C1.1 17.0319 1.1 17.028 1.1 17.0241C1.1 17.0202 1.1 17.0163 1.1 17.0123C1.1 17.0084 1.1 17.0045 1.1 17.0005C1.1 16.9966 1.1 16.9927 1.1 16.9887C1.1 16.9848 1.1 16.9809 1.1 16.9769C1.1 16.973 1.1 16.969 1.1 16.9651C1.1 16.9611 1.1 16.9572 1.1 16.9533C1.1 16.9493 1.1 16.9454 1.1 16.9414C1.1 16.9374 1.1 16.9335 1.1 16.9295C1.1 16.9256 1.1 16.9216 1.1 16.9177C1.1 16.9137 1.1 16.9097 1.1 16.9058C1.1 16.9018 1.1 16.8978 1.1 16.8939C1.1 16.8899 1.1 16.8859 1.1 16.8819C1.1 16.878 1.1 16.874 1.1 16.87C1.1 16.866 1.1 16.8621 1.1 16.8581C1.1 16.8541 1.1 16.8501 1.1 16.8461C1.1 16.8421 1.1 16.8381 1.1 16.8342C1.1 16.8302 1.1 16.8262 1.1 16.8222C1.1 16.8182 1.1 16.8142 1.1 16.8102C1.1 16.8062 1.1 16.8022 1.1 16.7982C1.1 16.7942 1.1 16.7902 1.1 16.7862C1.1 16.7822 1.1 16.7782 1.1 16.7742C1.1 16.7702 1.1 16.7661 1.1 16.7621C1.1 16.7581 1.1 16.7541 1.1 16.7501C1.1 16.7461 1.1 16.742 1.1 16.738C1.1 16.734 1.1 16.73 1.1 16.726C1.1 16.7219 1.1 16.7179 1.1 16.7139C1.1 16.7098 1.1 16.7058 1.1 16.7018C1.1 16.6978 1.1 16.6937 1.1 16.6897C1.1 16.6856 1.1 16.6816 1.1 16.6776C1.1 16.6735 1.1 16.6695 1.1 16.6654C1.1 16.6614 1.1 16.6574 1.1 16.6533C1.1 16.6493 1.1 16.6452 1.1 16.6412C1.1 16.6371 1.1 16.6331 1.1 16.629C1.1 16.625 1.1 16.6209 1.1 16.6168C1.1 16.6128 1.1 16.6087 1.1 16.6047C1.1 16.6006 1.1 16.5965 1.1 16.5925C1.1 16.5884 1.1 16.5844 1.1 16.5803C1.1 16.5762 1.1 16.5722 1.1 16.5681C1.1 16.564 1.1 16.5599 1.1 16.5559C1.1 16.5518 1.1 16.5477 1.1 16.5436C1.1 16.5396 1.1 16.5355 1.1 16.5314C1.1 16.5273 1.1 16.5232 1.1 16.5191C1.1 16.5151 1.1 16.511 1.1 16.5069C1.1 16.5028 1.1 16.4987 1.1 16.4946C1.1 16.4905 1.1 16.4864 1.1 16.4823C1.1 16.4783 1.1 16.4742 1.1 16.4701C1.1 16.466 1.1 16.4619 1.1 16.4578C1.1 16.4537 1.1 16.4496 1.1 16.4455C1.1 16.4414 1.1 16.4372 1.1 16.4331C1.1 16.429 1.1 16.4249 1.1 16.4208C1.1 16.4167 1.1 16.4126 1.1 16.4085C1.1 16.4044 1.1 16.4003 1.1 16.3961C1.1 16.392 1.1 16.3879 1.1 16.3838C1.1 16.3797 1.1 16.3755 1.1 16.3714C1.1 16.3673 1.1 16.3632 1.1 16.3591C1.1 16.3549 1.1 16.3508 1.1 16.3467C1.1 16.3425 1.1 16.3384 1.1 16.3343C1.1 16.3302 1.1 16.326 1.1 16.3219C1.1 16.3178 1.1 16.3136 1.1 16.3095C1.1 16.3053 1.1 16.3012 1.1 16.2971C1.1 16.2929 1.1 16.2888 1.1 16.2847C1.1 16.2805 1.1 16.2764 1.1 16.2722C1.1 16.2681 1.1 16.2639 1.1 16.2598C1.1 16.2556 1.1 16.2515 1.1 16.2473C1.1 16.2432 1.1 16.239 1.1 16.2349C1.1 16.2307 1.1 16.2266 1.1 16.2224C1.1 16.2183 1.1 16.2141 1.1 16.2099C1.1 16.2058 1.1 16.2016 1.1 16.1975C1.1 16.1933 1.1 16.1891 1.1 16.185C1.1 16.1808 1.1 16.1767 1.1 16.1725C1.1 16.1683 1.1 16.1642 1.1 16.16C1.1 16.1558 1.1 16.1516 1.1 16.1475C1.1 16.1433 1.1 16.1391 1.1 16.135C1.1 16.1308 1.1 16.1266 1.1 16.1224C1.1 16.1183 1.1 16.1141 1.1 16.1099C1.1 16.1057 1.1 16.1015 1.1 16.0974C1.1 16.0932 1.1 16.089 1.1 16.0848C1.1 16.0806 1.1 16.0764 1.1 16.0723C1.1 16.0681 1.1 16.0639 1.1 16.0597C1.1 16.0555 1.1 16.0513 1.1 16.0471C1.1 16.0429 1.1 16.0387 1.1 16.0346C1.1 16.0304 1.1 16.0262 1.1 16.022C1.1 16.0178 1.1 16.0136 1.1 16.0094C1.1 16.0052 1.1 16.001 1.1 15.9968C1.1 15.9926 1.1 15.9884 1.1 15.9842C1.1 15.98 1.1 15.9758 1.1 15.9716C1.1 15.9674 1.1 15.9632 1.1 15.959C1.1 15.9548 1.1 15.9506 1.1 15.9463C1.1 15.9421 1.1 15.9379 1.1 15.9337C1.1 15.9295 1.1 15.9253 1.1 15.9211C1.1 15.9169 1.1 15.9127 1.1 15.9084C1.1 15.9042 1.1 15.9 1.1 15.8958C1.1 15.8916 1.1 15.8874 1.1 15.8832C1.1 15.8789 1.1 15.8747 1.1 15.8705C1.1 15.8663 1.1 15.8621 1.1 15.8578C1.1 15.8536 1.1 15.8494 1.1 15.8452C1.1 15.8409 1.1 15.8367 1.1 15.8325C1.1 15.8283 1.1 15.824 1.1 15.8198C1.1 15.8156 1.1 15.8114 1.1 15.8071C1.1 15.8029 1.1 15.7987 1.1 15.7944C1.1 15.7902 1.1 15.786 1.1 15.7817C1.1 15.7775 1.1 15.7733 1.1 15.769C1.1 15.7648 1.1 15.7606 1.1 15.7563C1.1 15.7521 1.1 15.7479 1.1 15.7436C1.1 15.7394 1.1 15.7351 1.1 15.7309C1.1 15.7267 1.1 15.7224 1.1 15.7182C1.1 15.7139 1.1 15.7097 1.1 15.7055C1.1 15.7012 1.1 15.697 1.1 15.6927C1.1 15.6885 1.1 15.6842 1.1 15.68C1.1 15.6757 1.1 15.6715 1.1 15.6672C1.1 15.663 1.1 15.6587 1.1 15.6545C1.1 15.6503 1.1 15.646 1.1 15.6418C1.1 15.6375 1.1 15.6332 1.1 15.629C1.1 15.6247 1.1 15.6205 1.1 15.6162C1.1 15.612 1.1 15.6077 1.1 15.6035C1.1 15.5992 1.1 15.595 1.1 15.5907C1.1 15.5865 1.1 15.5822 1.1 15.5779C1.1 15.5737 1.1 15.5694 1.1 15.5652C1.1 15.5609 1.1 15.5566 1.1 15.5524C1.1 15.5481 1.1 15.5439 1.1 15.5396C1.1 15.5353 1.1 15.5311 1.1 15.5268C1.1 15.5226 1.1 15.5183 1.1 15.514C1.1 15.5098 1.1 15.5055 1.1 15.5012C1.1 15.497 1.1 15.4927 1.1 15.4884C1.1 15.4842 1.1 15.4799 1.1 15.4756C1.1 15.4714 1.1 15.4671 1.1 15.4628C1.1 15.4586 1.1 15.4543 1.1 15.45C1.1 15.4458 1.1 15.4415 1.1 15.4372C1.1 15.4329 1.1 15.4287 1.1 15.4244C1.1 15.4201 1.1 15.4159 1.1 15.4116C1.1 15.4073 1.1 15.403 1.1 15.3988C1.1 15.3945 1.1 15.3902 1.1 15.3859C1.1 15.3817 1.1 15.3774 1.1 15.3731C1.1 15.3688 1.1 15.3646 1.1 15.3603C1.1 15.356 1.1 15.3517 1.1 15.3475C1.1 15.3432 1.1 15.3389 1.1 15.3346C1.1 15.3304 1.1 15.3261 1.1 15.3218C1.1 15.3175 1.1 15.3132 1.1 15.309C1.1 15.3047 1.1 15.3004 1.1 15.2961C1.1 15.2918 1.1 15.2876 1.1 15.2833C1.1 15.279 1.1 15.2747 1.1 15.2704C1.1 15.2661 1.1 15.2619 1.1 15.2576C1.1 15.2533 1.1 15.249 1.1 15.2447C1.1 15.2404 1.1 15.2362 1.1 15.2319C1.1 15.2276 1.1 15.2233 1.1 15.219C1.1 15.2147 1.1 15.2105 1.1 15.2062C1.1 15.2019 1.1 15.1976 1.1 15.1933C1.1 15.189 1.1 15.1847 1.1 15.1805C1.1 15.1762 1.1 15.1719 1.1 15.1676C1.1 15.1633 1.1 15.159 1.1 15.1547C1.1 15.1505 1.1 15.1462 1.1 15.1419C1.1 15.1376 1.1 15.1333 1.1 15.129C1.1 15.1247 1.1 15.1204 1.1 15.1161C1.1 15.1119 1.1 15.1076 1.1 15.1033C1.1 15.099 1.1 15.0947 1.1 15.0904C1.1 15.0861 1.1 15.0818 1.1 15.0775C1.1 15.0733 1.1 15.069 1.1 15.0647C1.1 15.0604 1.1 15.0561 1.1 15.0518C1.1 15.0475 1.1 15.0432 1.1 15.0389C1.1 15.0346 1.1 15.0304 1.1 15.0261C1.1 15.0218 1.1 15.0175 1.1 15.0132C1.1 15.0089 1.1 15.0046 1.1 15.0003C1.1 14.996 1.1 14.9917 1.1 14.9874C1.1 14.9832 1.1 14.9789 1.1 14.9746C1.1 14.9703 1.1 14.966 1.1 14.9617C1.1 14.9574 1.1 14.9531 1.1 14.9488C1.1 14.9445 1.1 14.9402 1.1 14.9359C1.1 14.9317 1.1 14.9274 1.1 14.9231C1.1 14.9188 1.1 14.9145 1.1 14.9102C1.1 14.9059 1.1 14.9016 1.1 14.8973C1.1 14.893 1.1 14.8887 1.1 14.8845C1.1 14.8802 1.1 14.8759 1.1 14.8716C1.1 14.8673 1.1 14.863 1.1 14.8587C1.1 14.8544 1.1 14.8501 1.1 14.8458C1.1 14.8415 1.1 14.8372 1.1 14.833C1.1 14.8287 1.1 14.8244 1.1 14.8201C1.1 14.8158 1.1 14.8115 1.1 14.8072C1.1 14.8029 1.1 14.7986 1.1 14.7943C1.1 14.7901 1.1 14.7858 1.1 14.7815C1.1 14.7772 1.1 14.7729 1.1 14.7686C1.1 14.7643 1.1 14.76 1.1 14.7557C1.1 14.7514 1.1 14.7472 1.1 14.7429C1.1 14.7386 1.1 14.7343 1.1 14.73C1.1 14.7257 1.1 14.7214 1.1 14.7171C1.1 14.7129 1.1 14.7086 1.1 14.7043C1.1 14.7 1.1 14.6957 1.1 14.6914C1.1 14.6871 1.1 14.6828 1.1 14.6786C1.1 14.6743 1.1 14.67 1.1 14.6657C1.1 14.6614 1.1 14.6571 1.1 14.6528C1.1 14.6485 1.1 14.6443 1.1 14.64C1.1 14.6357 1.1 14.6314 1.1 14.6271C1.1 14.6228 1.1 14.6186 1.1 14.6143C1.1 14.61 1.1 14.6057 1.1 14.6014C1.1 14.5971 1.1 14.5929 1.1 14.5886C1.1 14.5843 1.1 14.58 1.1 14.5757C1.1 14.5714 1.1 14.5672 1.1 14.5629C1.1 14.5586 1.1 14.5543 1.1 14.55C1.1 14.5458 1.1 14.5415 1.1 14.5372C1.1 14.5329 1.1 14.5286 1.1 14.5244C1.1 14.5201 1.1 14.5158 1.1 14.5115C1.1 14.5072 1.1 14.503 1.1 14.4987C1.1 14.4944 1.1 14.4901 1.1 14.4859C1.1 14.4816 1.1 14.4773 1.1 14.473C1.1 14.4688 1.1 14.4645 1.1 14.4602C1.1 14.4559 1.1 14.4517 1.1 14.4474C1.1 14.4431 1.1 14.4388 1.1 14.4346C1.1 14.4303 1.1 14.426 1.1 14.4217C1.1 14.4175 1.1 14.4132 1.1 14.4089C1.1 14.4047 1.1 14.4004 1.1 14.3961C1.1 14.3919 1.1 14.3876 1.1 14.3833C1.1 14.379 1.1 14.3748 1.1 14.3705C1.1 14.3662 1.1 14.362 1.1 14.3577C1.1 14.3534 1.1 14.3492 1.1 14.3449C1.1 14.3407 1.1 14.3364 1.1 14.3321C1.1 14.3279 1.1 14.3236 1.1 14.3193C1.1 14.3151 1.1 14.3108 1.1 14.3065C1.1 14.3023 1.1 14.298 1.1 14.2938C1.1 14.2895 1.1 14.2852 1.1 14.281C1.1 14.2767 1.1 14.2725 1.1 14.2682C1.1 14.264 1.1 14.2597 1.1 14.2554C1.1 14.2512 1.1 14.2469 1.1 14.2427C1.1 14.2384 1.1 14.2342 1.1 14.2299C1.1 14.2257 1.1 14.2214 1.1 14.2172C1.1 14.2129 1.1 14.2087 1.1 14.2044C1.1 14.2002 1.1 14.1959 1.1 14.1917C1.1 14.1874 1.1 14.1832 1.1 14.1789C1.1 14.1747 1.1 14.1704 1.1 14.1662C1.1 14.1619 1.1 14.1577 1.1 14.1534C1.1 14.1492 1.1 14.1449 1.1 14.1407C1.1 14.1365 1.1 14.1322 1.1 14.128C1.1 14.1237 1.1 14.1195 1.1 14.1153C1.1 14.111 1.1 14.1068 1.1 14.1025C1.1 14.0983 1.1 14.0941 1.1 14.0898C1.1 14.0856 1.1 14.0814 1.1 14.0771C1.1 14.0729 1.1 14.0686 1.1 14.0644C1.1 14.0602 1.1 14.056 1.1 14.0517C1.1 14.0475 1.1 14.0433 1.1 14.039C1.1 14.0348 1.1 14.0306 1.1 14.0263C1.1 14.0221 1.1 14.0179 1.1 14.0137C1.1 14.0094 1.1 14.0052 1.1 14.001C1.1 13.9968 1.1 13.9925 1.1 13.9883C1.1 13.9841 1.1 13.9799 1.1 13.9757C1.1 13.9714 1.1 13.9672 1.1 13.963C1.1 13.9588 1.1 13.9546 1.1 13.9503C1.1 13.9461 1.1 13.9419 1.1 13.9377C1.1 13.9335 1.1 13.9293 1.1 13.9251C1.1 13.9209 1.1 13.9166 1.1 13.9124C1.1 13.9082 1.1 13.904 1.1 13.8998C1.1 13.8956 1.1 13.8914 1.1 13.8872C1.1 13.883 1.1 13.8788 1.1 13.8746C1.1 13.8704 1.1 13.8662 1.1 13.862C1.1 13.8578 1.1 13.8536 1.1 13.8494C1.1 13.8452 1.1 13.841 1.1 13.8368C1.1 13.8326 1.1 13.8284 1.1 13.8242C1.1 13.82 1.1 13.8158 1.1 13.8116C1.1 13.8074 1.1 13.8032 1.1 13.799C1.1 13.7948 1.1 13.7906 1.1 13.7865C1.1 13.7823 1.1 13.7781 1.1 13.7739C1.1 13.7697 1.1 13.7655 1.1 13.7613C1.1 13.7572 1.1 13.753 1.1 13.7488C1.1 13.7446 1.1 13.7404 1.1 13.7363C1.1 13.7321 1.1 13.7279 1.1 13.7237C1.1 13.7195 1.1 13.7154 1.1 13.7112C1.1 13.707 1.1 13.7028 1.1 13.6987C1.1 13.6945 1.1 13.6903 1.1 13.6862C1.1 13.682 1.1 13.6778 1.1 13.6737C1.1 13.6695 1.1 13.6653 1.1 13.6612C1.1 13.657 1.1 13.6528 1.1 13.6487C1.1 13.6445 1.1 13.6404 1.1 13.6362C1.1 13.632 1.1 13.6279 1.1 13.6237C1.1 13.6196 1.1 13.6154 1.1 13.6113C1.1 13.6071 1.1 13.603 1.1 13.5988C1.1 13.5947 1.1 13.5905 1.1 13.5864C1.1 13.5822 1.1 13.5781 1.1 13.5739C1.1 13.5698 1.1 13.5656 1.1 13.5615C1.1 13.5574 1.1 13.5532 1.1 13.5491C1.1 13.5449 1.1 13.5408 1.1 13.5367C1.1 13.5325 1.1 13.5284 1.1 13.5243C1.1 13.5201 1.1 13.516 1.1 13.5119C1.1 13.5077 1.1 13.5036 1.1 13.4995C1.1 13.4953 1.1 13.4912 1.1 13.4871C1.1 13.483 1.1 13.4788 1.1 13.4747C1.1 13.4706 1.1 13.4665 1.1 13.4624C1.1 13.4582 1.1 13.4541 1.1 13.45C1.1 13.4459 1.1 13.4418 1.1 13.4377C1.1 13.4336 1.1 13.4294 1.1 13.4253C1.1 13.4212 1.1 13.4171 1.1 13.413C1.1 13.4089 1.1 13.4048 1.1 13.4007C1.1 13.3966 1.1 13.3925 1.1 13.3884C1.1 13.3843 1.1 13.3802 1.1 13.3761C1.1 13.372 1.1 13.3679 1.1 13.3638C1.1 13.3597 1.1 13.3556 1.1 13.3515C1.1 13.3474 1.1 13.3433 1.1 13.3393C1.1 13.3352 1.1 13.3311 1.1 13.327C1.1 13.3229 1.1 13.3188 1.1 13.3148C1.1 13.3107 1.1 13.3066 1.1 13.3025C1.1 13.2984 1.1 13.2944 1.1 13.2903C1.1 13.2862 1.1 13.2821 1.1 13.2781C1.1 13.274 1.1 13.2699 1.1 13.2659C1.1 13.2618 1.1 13.2577 1.1 13.2537C1.1 13.2496 1.1 13.2455 1.1 13.2415C1.1 13.2374 1.1 13.2334 1.1 13.2293C1.1 13.2252 1.1 13.2212 1.1 13.2171C1.1 13.2131 1.1 13.209 1.1 13.205C1.1 13.2009 1.1 13.1969 1.1 13.1928C1.1 13.1888 1.1 13.1847 1.1 13.1807C1.1 13.1767 1.1 13.1726 1.1 13.1686C1.1 13.1645 1.1 13.1605 1.1 13.1565C1.1 13.1524 1.1 13.1484 1.1 13.1444C1.1 13.1403 1.1 13.1363 1.1 13.1323C1.1 13.1282 1.1 13.1242 1.1 13.1202C1.1 13.1162 1.1 13.1121 1.1 13.1081C1.1 13.1041 1.1 13.1001 1.1 13.0961C1.1 13.0921 1.1 13.088 1.1 13.084C1.1 13.08 1.1 13.076 1.1 13.072C1.1 13.068 1.1 13.064 1.1 13.06C1.1 13.056 1.1 13.052 1.1 13.048C1.1 13.044 1.1 13.04 1.1 13.036C1.1 13.032 1.1 13.028 1.1 13.024C1.1 13.02 1.1 13.016 1.1 13.012C1.1 13.008 1.1 13.004 1.1 13C1.1 12.996 1.1 12.9921 1.1 12.9881C1.1 12.9841 1.1 12.9801 1.1 12.9761C1.1 12.9722 1.1 12.9682 1.1 12.9642C1.1 12.9602 1.1 12.9563 1.1 12.9523C1.1 12.9483 1.1 12.9444 1.1 12.9404C1.1 12.9364 1.1 12.9325 1.1 12.9285C1.1 12.9245 1.1 12.9206 1.1 12.9166C1.1 12.9127 1.1 12.9087 1.1 12.9048C1.1 12.9008 1.1 12.8968 1.1 12.8929C1.1 12.889 1.1 12.885 1.1 12.8811C1.1 12.8771 1.1 12.8732 1.1 12.8692C1.1 12.8653 1.1 12.8614 1.1 12.8574C1.1 12.8535 1.1 12.8495 1.1 12.8456C1.1 12.8417 1.1 12.8378 1.1 12.8338C1.1 12.8299 1.1 12.826 1.1 12.822C1.1 12.8181 1.1 12.8142 1.1 12.8103C1.1 12.8064 1.1 12.8025 1.1 12.7985C1.1 12.7946 1.1 12.7907 1.1 12.7868C1.1 12.7829 1.1 12.779 1.1 12.7751C1.1 12.7712 1.1 12.7673 1.1 12.7634C1.1 12.7595 1.1 12.7556 1.1 12.7517C1.1 12.7478 1.1 12.7439 1.1 12.74C1.1 12.7361 1.1 12.7322 1.1 12.7283C1.1 12.7244 1.1 12.7205 1.1 12.7167C1.1 12.7128 1.1 12.7089 1.1 12.705C1.1 12.7011 1.1 12.6973 1.1 12.6934C1.1 12.6895 1.1 12.6857 1.1 12.6818C1.1 12.6779 1.1 12.674 1.1 12.6702C1.1 12.6663 1.1 12.6625 1.1 12.6586C1.1 12.6547 1.1 12.6509 1.1 12.647C1.1 12.6432 1.1 12.6393 1.1 12.6355C1.1 12.6316 1.1 12.6278 1.1 12.6239C1.1 12.6201 1.1 12.6162 1.1 12.6124C1.1 12.6086 1.1 12.6047 1.1 12.6009C1.1 12.5971 1.1 12.5932 1.1 12.5894C1.1 12.5856 1.1 12.5817 1.1 12.5779C1.1 12.5741 1.1 12.5703 1.1 12.5664C1.1 12.5626 1.1 12.5588 1.1 12.555C1.1 12.5512 1.1 12.5474 1.1 12.5435C1.1 12.5397 1.1 12.5359 1.1 12.5321C1.1 12.5283 1.1 12.5245 1.1 12.5207C1.1 12.5169 1.1 12.5131 1.1 12.5093C1.1 12.5055 1.1 12.5017 1.1 12.4979C1.1 12.4942 1.1 12.4904 1.1 12.4866C1.1 12.4828 1.1 12.479 1.1 12.4752C1.1 12.4715 1.1 12.4677 1.1 12.4639C1.1 12.4601 1.1 12.4564 1.1 12.4526C1.1 12.4488 1.1 12.445 1.1 12.4413C1.1 12.4375 1.1 12.4338 1.1 12.43C1.1 12.4262 1.1 12.4225 1.1 12.4187C1.1 12.415 1.1 12.4112 1.1 12.4075C1.1 12.4037 1.1 12.4 1.1 12.3962C1.1 12.3925 1.1 12.3888 1.1 12.385C1.1 12.3813 1.1 12.3775 1.1 12.3738C1.1 12.3701 1.1 12.3664 1.1 12.3626C1.1 12.3589 1.1 12.3552 1.1 12.3515C1.1 12.3477 1.1 12.344 1.1 12.3403C1.1 12.3366 1.1 12.3329 1.1 12.3292C1.1 12.3254 1.1 12.3217 1.1 12.318C1.1 12.3143 1.1 12.3106 1.1 12.3069C1.1 12.3032 1.1 12.2995 1.1 12.2958C1.1 12.2921 1.1 12.2885 1.1 12.2848C1.1 12.2811 1.1 12.2774 1.1 12.2737C1.1 12.27 1.1 12.2663 1.1 12.2627C1.1 12.259 1.1 12.2553 1.1 12.2516C1.1 12.248 1.1 12.2443 1.1 12.2406C1.1 12.237 1.1 12.2333 1.1 12.2297C1.1 12.226 1.1 12.2223 1.1 12.2187C1.1 12.215 1.1 12.2114 1.1 12.2077C1.1 12.2041 1.1 12.2004 1.1 12.1968C1.1 12.1931 1.1 12.1895 1.1 12.1859C1.1 12.1822 1.1 12.1786 1.1 12.175C1.1 12.1713 1.1 12.1677 1.1 12.1641C1.1 12.1605 1.1 12.1568 1.1 12.1532C1.1 12.1496 1.1 12.146 1.1 12.1424C1.1 12.1388 1.1 12.1351 1.1 12.1315C1.1 12.1279 1.1 12.1243 1.1 12.1207C1.1 12.1171 1.1 12.1135 1.1 12.1099C1.1 12.1063 1.1 12.1027 1.1 12.0992C1.1 12.0956 1.1 12.092 1.1 12.0884C1.1 12.0848 1.1 12.0812 1.1 12.0777C1.1 12.0741 1.1 12.0705 1.1 12.0669C1.1 12.0634 1.1 12.0598 1.1 12.0562C1.1 12.0527 1.1 12.0491 1.1 12.0455C1.1 12.042 1.1 12.0384 1.1 12.0349C1.1 12.0313 1.1 12.0278 1.1 12.0242C1.1 12.0207 1.1 12.0171 1.1 12.0136C1.1 12.0101 1.1 12.0065 1.1 12.003C1.1 11.9995 1.1 11.9959 1.1 11.9924C1.1 11.9889 1.1 11.9854 1.1 11.9818C1.1 11.9783 1.1 11.9748 1.1 11.9713C1.1 11.9678 1.1 11.9643 1.1 11.9607C1.1 11.9572 1.1 11.9537 1.1 11.9502C1.1 11.9467 1.1 11.9432 1.1 11.9397C1.1 11.9362 1.1 11.9327 1.1 11.9293C1.1 11.9258 1.1 11.9223 1.1 11.9188C1.1 11.9153 1.1 11.9118 1.1 11.9084C1.1 11.9049 1.1 11.9014 1.1 11.8979C1.1 11.8945 1.1 11.891 1.1 11.8875C1.1 11.8841 1.1 11.8806 1.1 11.8772C1.1 11.8737 1.1 11.8703 1.1 11.8668C1.1 11.8634 1.1 11.8599 1.1 11.8565C1.1 11.853 1.1 11.8496 1.1 11.8462H2.9ZM2.9 18C2.9 18.5443 3.3242 18.9462 3.8 18.9462V20.7462C2.2874 20.7462 1.1 19.4951 1.1 18H2.9ZM4.7 19.8462V22H2.9V19.8462H4.7ZM3.28 21.2654L6.32259 19.1116L7.36259 20.5807L4.32 22.7346L3.28 21.2654ZM3.5 10.9C3.34426 10.9 3.22458 10.9621 3.11137 11.1232C2.98223 11.307 2.9 11.5816 2.9 11.8462H1.1C1.1 11.2645 1.26777 10.6161 1.63863 10.0883C2.02542 9.53788 2.65574 9.1 3.5 9.1V10.9Z" fill="#86898C"/>
<path fill-rule="evenodd" clip-rule="evenodd" d="M14.5432 16.1282H7.4C6.0744 16.1282 5 15.0263 5 13.6667C5 11.3208 5 7.80738 5 5.46154C5 4.10195 6.0744 3 7.4 3C10.4208 3 15.5792 3 18.6 3C19.9256 3 21 4.10195 21 5.46154C21 7.80738 21 11.3208 21 13.6667C21 15.0263 19.9256 16.1282 18.6 16.1282V19L14.5432 16.1282Z" stroke="#86898C" stroke-width="1.8" stroke-miterlimit="1" stroke-linecap="round" stroke-linejoin="round"/>
<path d="M17 7.5H9" stroke="#86898C" stroke-width="1.8" stroke-miterlimit="1" stroke-linecap="round" stroke-linejoin="round"/>
<path d="M17 11H14" stroke="#86898C" stroke-width="1.8" stroke-miterlimit="1" stroke-linecap="round" stroke-linejoin="round"/>
</g>
<defs>
<clipPath id="clip0">
<rect width="24" height="24" fill="white"/>
</clipPath>
</defs>
</svg>
