<svg width="24" height="24" viewBox="0 0 24 24" fill="none" xmlns="http://www.w3.org/2000/svg">
<g clip-path="url(#clip0)">
<path d="M18 22H6C4.89543 22 4 21.186 4 20.1818V6.38948C4 5.90727 4.21071 5.44481 4.58579 5.10383L7.41421 2.53253C7.78929 2.19156 8.29799 2 8.82843 2H18C19.1046 2 20 2.81403 20 3.81818V20.1818C20 21.186 19.1046 22 18 22Z" stroke="#86898C" stroke-width="1.8"/>
<path d="M16 12.5C16 11.3954 15.1046 10.5 14 10.5H10C8.89543 10.5 8 11.3954 8 12.5V16.5C8 17.6046 8.89543 18.5 10 18.5H14C15.1046 18.5 16 17.6046 16 16.5V12.5Z" stroke="#86898C" stroke-width="1.8"/>
</g>
<defs>
<clipPath id="clip0">
<rect width="24" height="24" fill="white"/>
</clipPath>
</defs>
</svg>
