<svg width="24" height="24" viewBox="0 0 24 24" fill="none" xmlns="http://www.w3.org/2000/svg">
<path d="M3.5 22H18.5C20.1569 22 21.5 20.6569 21.5 19V8C21.5 6.34315 20.1569 5 18.5 5V5" stroke="#86898C" stroke-width="1.8"/>
<path d="M5.5 5V2.4C5.5 2.17909 5.67909 2 5.9 2H18.1C18.3209 2 18.5 2.17909 18.5 2.4V18.6C18.5 18.8209 18.3209 19 18.1 19H15.5" stroke="#86898C" stroke-width="1.8"/>
<path d="M2.5 5H12.5C14.1569 5 15.5 6.34315 15.5 8V19C15.5 20.6568 14.1569 22 12.5 22H2.5V5Z" stroke="#86898C" stroke-width="1.8"/>
<path d="M5 9H13" stroke="#86898C" stroke-width="1.8"/>
<path d="M5 11.5H9" stroke="#86898C" stroke-width="1.8"/>
</svg>
